<mxfile host="Electron" agent="Mozilla/5.0 (Windows NT 10.0; Win64; x64) AppleWebKit/537.36 (KHTML, like Gecko) draw.io/28.2.5 Chrome/138.0.7204.251 Electron/37.6.1 Safari/537.36" version="28.2.5">
  <diagram name="Página-1" id="GsHdAeuJbjjVsow_5kbn">
    <mxGraphModel dx="983" dy="613" grid="1" gridSize="10" guides="1" tooltips="1" connect="1" arrows="1" fold="1" page="1" pageScale="1" pageWidth="827" pageHeight="1169" math="0" shadow="0">
      <root>
        <mxCell id="0" />
        <mxCell id="1" parent="0" />
        <mxCell id="D_SRV8tPxcgLL7g8VEt_-2" value="RelatórioMedalhas" style="swimlane;fontStyle=1;align=center;verticalAlign=top;childLayout=stackLayout;horizontal=1;startSize=26;horizontalStack=0;resizeParent=1;resizeParentMax=0;resizeLast=0;collapsible=1;marginBottom=0;whiteSpace=wrap;html=1;" vertex="1" parent="1">
          <mxGeometry x="30" y="50" width="240" height="60" as="geometry" />
        </mxCell>
        <mxCell id="D_SRV8tPxcgLL7g8VEt_-4" value="" style="line;strokeWidth=1;fillColor=none;align=left;verticalAlign=middle;spacingTop=-1;spacingLeft=3;spacingRight=3;rotatable=0;labelPosition=right;points=[];portConstraint=eastwest;strokeColor=inherit;" vertex="1" parent="D_SRV8tPxcgLL7g8VEt_-2">
          <mxGeometry y="26" width="240" height="8" as="geometry" />
        </mxCell>
        <mxCell id="D_SRV8tPxcgLL7g8VEt_-5" value="+gerar(): Map &amp;lt;Pais, ContagemMedalhas&amp;gt;" style="text;strokeColor=none;fillColor=none;align=left;verticalAlign=top;spacingLeft=4;spacingRight=4;overflow=hidden;rotatable=0;points=[[0,0.5],[1,0.5]];portConstraint=eastwest;whiteSpace=wrap;html=1;" vertex="1" parent="D_SRV8tPxcgLL7g8VEt_-2">
          <mxGeometry y="34" width="240" height="26" as="geometry" />
        </mxCell>
        <mxCell id="D_SRV8tPxcgLL7g8VEt_-6" value="Competicao" style="swimlane;fontStyle=1;align=center;verticalAlign=top;childLayout=stackLayout;horizontal=1;startSize=26;horizontalStack=0;resizeParent=1;resizeParentMax=0;resizeLast=0;collapsible=1;marginBottom=0;whiteSpace=wrap;html=1;" vertex="1" parent="1">
          <mxGeometry x="270" y="160" width="270" height="160" as="geometry" />
        </mxCell>
        <mxCell id="D_SRV8tPxcgLL7g8VEt_-7" value="+id: UUID&lt;div&gt;+modalidade: String&lt;/div&gt;&lt;div&gt;+dataHoraInicio: DateTime&lt;/div&gt;&lt;div&gt;+dataHoraFim: DateTime&lt;/div&gt;&lt;div&gt;+status: StatusCompeticao&lt;/div&gt;" style="text;strokeColor=none;fillColor=none;align=left;verticalAlign=top;spacingLeft=4;spacingRight=4;overflow=hidden;rotatable=0;points=[[0,0.5],[1,0.5]];portConstraint=eastwest;whiteSpace=wrap;html=1;" vertex="1" parent="D_SRV8tPxcgLL7g8VEt_-6">
          <mxGeometry y="26" width="270" height="84" as="geometry" />
        </mxCell>
        <mxCell id="D_SRV8tPxcgLL7g8VEt_-8" value="" style="line;strokeWidth=1;fillColor=none;align=left;verticalAlign=middle;spacingTop=-1;spacingLeft=3;spacingRight=3;rotatable=0;labelPosition=right;points=[];portConstraint=eastwest;strokeColor=inherit;" vertex="1" parent="D_SRV8tPxcgLL7g8VEt_-6">
          <mxGeometry y="110" width="270" height="8" as="geometry" />
        </mxCell>
        <mxCell id="D_SRV8tPxcgLL7g8VEt_-9" value="+alocarLocal(local: Local): void&lt;div&gt;+registrarResultado(resultado: Resultado): void&lt;/div&gt;" style="text;strokeColor=none;fillColor=none;align=left;verticalAlign=top;spacingLeft=4;spacingRight=4;overflow=hidden;rotatable=0;points=[[0,0.5],[1,0.5]];portConstraint=eastwest;whiteSpace=wrap;html=1;" vertex="1" parent="D_SRV8tPxcgLL7g8VEt_-6">
          <mxGeometry y="118" width="270" height="42" as="geometry" />
        </mxCell>
        <mxCell id="D_SRV8tPxcgLL7g8VEt_-13" value="" style="endArrow=open;endSize=12;dashed=1;html=1;rounded=0;entryX=0.222;entryY=0;entryDx=0;entryDy=0;entryPerimeter=0;exitX=0.995;exitY=0.885;exitDx=0;exitDy=0;exitPerimeter=0;" edge="1" parent="1" source="D_SRV8tPxcgLL7g8VEt_-5" target="D_SRV8tPxcgLL7g8VEt_-6">
          <mxGeometry x="0.3286" y="16" width="160" relative="1" as="geometry">
            <mxPoint x="340" y="240" as="sourcePoint" />
            <mxPoint x="500" y="240" as="targetPoint" />
            <mxPoint as="offset" />
          </mxGeometry>
        </mxCell>
        <mxCell id="D_SRV8tPxcgLL7g8VEt_-14" value="Resultado" style="swimlane;fontStyle=1;align=center;verticalAlign=top;childLayout=stackLayout;horizontal=1;startSize=26;horizontalStack=0;resizeParent=1;resizeParentMax=0;resizeLast=0;collapsible=1;marginBottom=0;whiteSpace=wrap;html=1;" vertex="1" parent="1">
          <mxGeometry x="90" y="360" width="160" height="88" as="geometry" />
        </mxCell>
        <mxCell id="D_SRV8tPxcgLL7g8VEt_-15" value="+vencedor: Atleta&lt;div&gt;+segundo: Atleta&lt;/div&gt;&lt;div&gt;+terceiro: Atleta&lt;/div&gt;" style="text;strokeColor=none;fillColor=none;align=left;verticalAlign=top;spacingLeft=4;spacingRight=4;overflow=hidden;rotatable=0;points=[[0,0.5],[1,0.5]];portConstraint=eastwest;whiteSpace=wrap;html=1;" vertex="1" parent="D_SRV8tPxcgLL7g8VEt_-14">
          <mxGeometry y="26" width="160" height="54" as="geometry" />
        </mxCell>
        <mxCell id="D_SRV8tPxcgLL7g8VEt_-16" value="" style="line;strokeWidth=1;fillColor=none;align=left;verticalAlign=middle;spacingTop=-1;spacingLeft=3;spacingRight=3;rotatable=0;labelPosition=right;points=[];portConstraint=eastwest;strokeColor=inherit;" vertex="1" parent="D_SRV8tPxcgLL7g8VEt_-14">
          <mxGeometry y="80" width="160" height="8" as="geometry" />
        </mxCell>
        <mxCell id="D_SRV8tPxcgLL7g8VEt_-18" value="" style="endArrow=open;endSize=12;dashed=1;html=1;rounded=0;entryX=0.5;entryY=0;entryDx=0;entryDy=0;exitX=0.549;exitY=0.911;exitDx=0;exitDy=0;exitPerimeter=0;" edge="1" parent="1" source="D_SRV8tPxcgLL7g8VEt_-5" target="D_SRV8tPxcgLL7g8VEt_-14">
          <mxGeometry x="0.3286" y="16" width="160" relative="1" as="geometry">
            <mxPoint x="170" y="200" as="sourcePoint" />
            <mxPoint x="231" y="253" as="targetPoint" />
            <mxPoint as="offset" />
          </mxGeometry>
        </mxCell>
        <mxCell id="D_SRV8tPxcgLL7g8VEt_-19" value="" style="endArrow=diamondThin;endFill=1;endSize=24;html=1;rounded=0;entryX=0;entryY=1.052;entryDx=0;entryDy=0;entryPerimeter=0;exitX=0.75;exitY=0;exitDx=0;exitDy=0;" edge="1" parent="1" source="D_SRV8tPxcgLL7g8VEt_-14" target="D_SRV8tPxcgLL7g8VEt_-9">
          <mxGeometry width="160" relative="1" as="geometry">
            <mxPoint x="340" y="240" as="sourcePoint" />
            <mxPoint x="500" y="240" as="targetPoint" />
          </mxGeometry>
        </mxCell>
        <mxCell id="D_SRV8tPxcgLL7g8VEt_-20" value="1" style="text;html=1;align=center;verticalAlign=middle;resizable=0;points=[];autosize=1;strokeColor=none;fillColor=none;" vertex="1" parent="1">
          <mxGeometry x="240" y="300" width="30" height="30" as="geometry" />
        </mxCell>
        <mxCell id="D_SRV8tPxcgLL7g8VEt_-21" value="0..1" style="text;html=1;align=center;verticalAlign=middle;resizable=0;points=[];autosize=1;strokeColor=none;fillColor=none;" vertex="1" parent="1">
          <mxGeometry x="180" y="338" width="40" height="30" as="geometry" />
        </mxCell>
        <mxCell id="D_SRV8tPxcgLL7g8VEt_-22" value="Local" style="swimlane;fontStyle=1;align=center;verticalAlign=top;childLayout=stackLayout;horizontal=1;startSize=26;horizontalStack=0;resizeParent=1;resizeParentMax=0;resizeLast=0;collapsible=1;marginBottom=0;whiteSpace=wrap;html=1;" vertex="1" parent="1">
          <mxGeometry x="290" y="390" width="160" height="88" as="geometry" />
        </mxCell>
        <mxCell id="D_SRV8tPxcgLL7g8VEt_-23" value="+id: UUID&lt;div&gt;+nome: String&lt;/div&gt;&lt;div&gt;+capacidade: int&lt;/div&gt;" style="text;strokeColor=none;fillColor=none;align=left;verticalAlign=top;spacingLeft=4;spacingRight=4;overflow=hidden;rotatable=0;points=[[0,0.5],[1,0.5]];portConstraint=eastwest;whiteSpace=wrap;html=1;" vertex="1" parent="D_SRV8tPxcgLL7g8VEt_-22">
          <mxGeometry y="26" width="160" height="54" as="geometry" />
        </mxCell>
        <mxCell id="D_SRV8tPxcgLL7g8VEt_-24" value="" style="line;strokeWidth=1;fillColor=none;align=left;verticalAlign=middle;spacingTop=-1;spacingLeft=3;spacingRight=3;rotatable=0;labelPosition=right;points=[];portConstraint=eastwest;strokeColor=inherit;" vertex="1" parent="D_SRV8tPxcgLL7g8VEt_-22">
          <mxGeometry y="80" width="160" height="8" as="geometry" />
        </mxCell>
        <mxCell id="D_SRV8tPxcgLL7g8VEt_-25" value="" style="endArrow=diamondThin;endFill=1;endSize=24;html=1;rounded=0;entryX=0.355;entryY=1.068;entryDx=0;entryDy=0;entryPerimeter=0;" edge="1" parent="1" source="D_SRV8tPxcgLL7g8VEt_-22" target="D_SRV8tPxcgLL7g8VEt_-9">
          <mxGeometry width="160" relative="1" as="geometry">
            <mxPoint x="350" y="388" as="sourcePoint" />
            <mxPoint x="410" y="350" as="targetPoint" />
          </mxGeometry>
        </mxCell>
        <mxCell id="D_SRV8tPxcgLL7g8VEt_-26" value="1" style="text;html=1;align=center;verticalAlign=middle;resizable=0;points=[];autosize=1;strokeColor=none;fillColor=none;" vertex="1" parent="1">
          <mxGeometry x="365" y="328" width="30" height="30" as="geometry" />
        </mxCell>
        <mxCell id="D_SRV8tPxcgLL7g8VEt_-27" value="0..1" style="text;html=1;align=center;verticalAlign=middle;resizable=0;points=[];autosize=1;strokeColor=none;fillColor=none;" vertex="1" parent="1">
          <mxGeometry x="360" y="368" width="40" height="30" as="geometry" />
        </mxCell>
        <mxCell id="D_SRV8tPxcgLL7g8VEt_-28" value="Inscricao" style="swimlane;fontStyle=1;align=center;verticalAlign=top;childLayout=stackLayout;horizontal=1;startSize=26;horizontalStack=0;resizeParent=1;resizeParentMax=0;resizeLast=0;collapsible=1;marginBottom=0;whiteSpace=wrap;html=1;" vertex="1" parent="1">
          <mxGeometry x="520" y="390" width="160" height="94" as="geometry" />
        </mxCell>
        <mxCell id="D_SRV8tPxcgLL7g8VEt_-29" value="+id: UUID&lt;div&gt;+data: DateTime&lt;/div&gt;" style="text;strokeColor=none;fillColor=none;align=left;verticalAlign=top;spacingLeft=4;spacingRight=4;overflow=hidden;rotatable=0;points=[[0,0.5],[1,0.5]];portConstraint=eastwest;whiteSpace=wrap;html=1;" vertex="1" parent="D_SRV8tPxcgLL7g8VEt_-28">
          <mxGeometry y="26" width="160" height="34" as="geometry" />
        </mxCell>
        <mxCell id="D_SRV8tPxcgLL7g8VEt_-30" value="" style="line;strokeWidth=1;fillColor=none;align=left;verticalAlign=middle;spacingTop=-1;spacingLeft=3;spacingRight=3;rotatable=0;labelPosition=right;points=[];portConstraint=eastwest;strokeColor=inherit;" vertex="1" parent="D_SRV8tPxcgLL7g8VEt_-28">
          <mxGeometry y="60" width="160" height="8" as="geometry" />
        </mxCell>
        <mxCell id="D_SRV8tPxcgLL7g8VEt_-31" value="+ cancelar(): void" style="text;strokeColor=none;fillColor=none;align=left;verticalAlign=top;spacingLeft=4;spacingRight=4;overflow=hidden;rotatable=0;points=[[0,0.5],[1,0.5]];portConstraint=eastwest;whiteSpace=wrap;html=1;" vertex="1" parent="D_SRV8tPxcgLL7g8VEt_-28">
          <mxGeometry y="68" width="160" height="26" as="geometry" />
        </mxCell>
        <mxCell id="D_SRV8tPxcgLL7g8VEt_-32" value="" style="endArrow=diamondThin;endFill=1;endSize=24;html=1;rounded=0;entryX=0.815;entryY=1.019;entryDx=0;entryDy=0;entryPerimeter=0;" edge="1" parent="1" target="D_SRV8tPxcgLL7g8VEt_-9">
          <mxGeometry width="160" relative="1" as="geometry">
            <mxPoint x="520" y="388" as="sourcePoint" />
            <mxPoint x="600" y="350" as="targetPoint" />
          </mxGeometry>
        </mxCell>
        <mxCell id="D_SRV8tPxcgLL7g8VEt_-33" value="1" style="text;html=1;align=center;verticalAlign=middle;resizable=0;points=[];autosize=1;strokeColor=none;fillColor=none;" vertex="1" parent="1">
          <mxGeometry x="465" y="318" width="30" height="30" as="geometry" />
        </mxCell>
        <mxCell id="D_SRV8tPxcgLL7g8VEt_-34" value="0..*" style="text;html=1;align=center;verticalAlign=middle;resizable=0;points=[];autosize=1;strokeColor=none;fillColor=none;" vertex="1" parent="1">
          <mxGeometry x="480" y="368" width="40" height="30" as="geometry" />
        </mxCell>
        <mxCell id="D_SRV8tPxcgLL7g8VEt_-39" value="" style="endArrow=open;endFill=1;endSize=12;html=1;rounded=0;exitX=0.5;exitY=0;exitDx=0;exitDy=0;entryX=0.999;entryY=1.002;entryDx=0;entryDy=0;entryPerimeter=0;" edge="1" parent="1" source="D_SRV8tPxcgLL7g8VEt_-28" target="D_SRV8tPxcgLL7g8VEt_-9">
          <mxGeometry width="160" relative="1" as="geometry">
            <mxPoint x="460" y="340" as="sourcePoint" />
            <mxPoint x="620" y="340" as="targetPoint" />
          </mxGeometry>
        </mxCell>
        <mxCell id="D_SRV8tPxcgLL7g8VEt_-40" value="*" style="text;html=1;align=center;verticalAlign=middle;resizable=0;points=[];autosize=1;strokeColor=none;fillColor=none;" vertex="1" parent="1">
          <mxGeometry x="585" y="368" width="30" height="30" as="geometry" />
        </mxCell>
        <mxCell id="D_SRV8tPxcgLL7g8VEt_-41" value="1" style="text;html=1;align=center;verticalAlign=middle;resizable=0;points=[];autosize=1;strokeColor=none;fillColor=none;" vertex="1" parent="1">
          <mxGeometry x="545" y="308" width="30" height="30" as="geometry" />
        </mxCell>
        <mxCell id="D_SRV8tPxcgLL7g8VEt_-42" value="Atleta" style="swimlane;fontStyle=1;align=center;verticalAlign=top;childLayout=stackLayout;horizontal=1;startSize=26;horizontalStack=0;resizeParent=1;resizeParentMax=0;resizeLast=0;collapsible=1;marginBottom=0;whiteSpace=wrap;html=1;" vertex="1" parent="1">
          <mxGeometry x="350" y="560" width="160" height="98" as="geometry" />
        </mxCell>
        <mxCell id="D_SRV8tPxcgLL7g8VEt_-43" value="+id: UUID&lt;div&gt;+nome: String&lt;/div&gt;&lt;div&gt;+dataNascimento: Date&lt;/div&gt;&lt;div&gt;+modalidades: Set&amp;lt;String&amp;gt;&lt;/div&gt;" style="text;strokeColor=none;fillColor=none;align=left;verticalAlign=top;spacingLeft=4;spacingRight=4;overflow=hidden;rotatable=0;points=[[0,0.5],[1,0.5]];portConstraint=eastwest;whiteSpace=wrap;html=1;" vertex="1" parent="D_SRV8tPxcgLL7g8VEt_-42">
          <mxGeometry y="26" width="160" height="64" as="geometry" />
        </mxCell>
        <mxCell id="D_SRV8tPxcgLL7g8VEt_-44" value="" style="line;strokeWidth=1;fillColor=none;align=left;verticalAlign=middle;spacingTop=-1;spacingLeft=3;spacingRight=3;rotatable=0;labelPosition=right;points=[];portConstraint=eastwest;strokeColor=inherit;" vertex="1" parent="D_SRV8tPxcgLL7g8VEt_-42">
          <mxGeometry y="90" width="160" height="8" as="geometry" />
        </mxCell>
        <mxCell id="D_SRV8tPxcgLL7g8VEt_-46" value="" style="endArrow=open;endFill=1;endSize=12;html=1;rounded=0;exitX=0.003;exitY=1.115;exitDx=0;exitDy=0;entryX=0.75;entryY=0;entryDx=0;entryDy=0;exitPerimeter=0;" edge="1" parent="1" source="D_SRV8tPxcgLL7g8VEt_-31" target="D_SRV8tPxcgLL7g8VEt_-42">
          <mxGeometry width="160" relative="1" as="geometry">
            <mxPoint x="570" y="590" as="sourcePoint" />
            <mxPoint x="510" y="520" as="targetPoint" />
          </mxGeometry>
        </mxCell>
        <mxCell id="D_SRV8tPxcgLL7g8VEt_-47" value="*" style="text;html=1;align=center;verticalAlign=middle;resizable=0;points=[];autosize=1;strokeColor=none;fillColor=none;" vertex="1" parent="1">
          <mxGeometry x="515" y="478" width="30" height="30" as="geometry" />
        </mxCell>
        <mxCell id="D_SRV8tPxcgLL7g8VEt_-48" value="1" style="text;html=1;align=center;verticalAlign=middle;resizable=0;points=[];autosize=1;strokeColor=none;fillColor=none;" vertex="1" parent="1">
          <mxGeometry x="475" y="538" width="30" height="30" as="geometry" />
        </mxCell>
        <mxCell id="D_SRV8tPxcgLL7g8VEt_-49" value="Pais" style="swimlane;fontStyle=1;align=center;verticalAlign=top;childLayout=stackLayout;horizontal=1;startSize=26;horizontalStack=0;resizeParent=1;resizeParentMax=0;resizeLast=0;collapsible=1;marginBottom=0;whiteSpace=wrap;html=1;" vertex="1" parent="1">
          <mxGeometry x="50" y="660" width="160" height="70" as="geometry" />
        </mxCell>
        <mxCell id="D_SRV8tPxcgLL7g8VEt_-50" value="+codigoISO: String&lt;div&gt;+nome: Sring&lt;/div&gt;" style="text;strokeColor=none;fillColor=none;align=left;verticalAlign=top;spacingLeft=4;spacingRight=4;overflow=hidden;rotatable=0;points=[[0,0.5],[1,0.5]];portConstraint=eastwest;whiteSpace=wrap;html=1;" vertex="1" parent="D_SRV8tPxcgLL7g8VEt_-49">
          <mxGeometry y="26" width="160" height="34" as="geometry" />
        </mxCell>
        <mxCell id="D_SRV8tPxcgLL7g8VEt_-51" value="" style="line;strokeWidth=1;fillColor=none;align=left;verticalAlign=middle;spacingTop=-1;spacingLeft=3;spacingRight=3;rotatable=0;labelPosition=right;points=[];portConstraint=eastwest;strokeColor=inherit;" vertex="1" parent="D_SRV8tPxcgLL7g8VEt_-49">
          <mxGeometry y="60" width="160" height="8" as="geometry" />
        </mxCell>
        <mxCell id="D_SRV8tPxcgLL7g8VEt_-52" value="&lt;div&gt;&lt;br&gt;&lt;/div&gt;" style="text;strokeColor=none;fillColor=none;align=left;verticalAlign=top;spacingLeft=4;spacingRight=4;overflow=hidden;rotatable=0;points=[[0,0.5],[1,0.5]];portConstraint=eastwest;whiteSpace=wrap;html=1;" vertex="1" parent="D_SRV8tPxcgLL7g8VEt_-49">
          <mxGeometry y="68" width="160" height="2" as="geometry" />
        </mxCell>
        <mxCell id="D_SRV8tPxcgLL7g8VEt_-53" value="" style="endArrow=open;endSize=12;dashed=1;html=1;rounded=0;entryX=0.052;entryY=-0.008;entryDx=0;entryDy=0;exitX=0.038;exitY=1.07;exitDx=0;exitDy=0;exitPerimeter=0;entryPerimeter=0;" edge="1" parent="1" source="D_SRV8tPxcgLL7g8VEt_-5" target="D_SRV8tPxcgLL7g8VEt_-49">
          <mxGeometry x="0.3286" y="16" width="160" relative="1" as="geometry">
            <mxPoint x="20" y="230" as="sourcePoint" />
            <mxPoint x="28" y="482" as="targetPoint" />
            <mxPoint as="offset" />
          </mxGeometry>
        </mxCell>
        <mxCell id="D_SRV8tPxcgLL7g8VEt_-54" value="" style="endArrow=open;endFill=1;endSize=12;html=1;rounded=0;entryX=1;entryY=0;entryDx=0;entryDy=0;exitX=0.005;exitY=0.598;exitDx=0;exitDy=0;exitPerimeter=0;" edge="1" parent="1" source="D_SRV8tPxcgLL7g8VEt_-43" target="D_SRV8tPxcgLL7g8VEt_-49">
          <mxGeometry width="160" relative="1" as="geometry">
            <mxPoint x="320" y="630" as="sourcePoint" />
            <mxPoint x="260" y="713" as="targetPoint" />
          </mxGeometry>
        </mxCell>
        <mxCell id="D_SRV8tPxcgLL7g8VEt_-55" value="1" style="text;html=1;align=center;verticalAlign=middle;resizable=0;points=[];autosize=1;strokeColor=none;fillColor=none;" vertex="1" parent="1">
          <mxGeometry x="325" y="618" width="30" height="30" as="geometry" />
        </mxCell>
        <mxCell id="D_SRV8tPxcgLL7g8VEt_-56" value="1" style="text;html=1;align=center;verticalAlign=middle;resizable=0;points=[];autosize=1;strokeColor=none;fillColor=none;" vertex="1" parent="1">
          <mxGeometry x="215" y="658" width="30" height="30" as="geometry" />
        </mxCell>
        <mxCell id="D_SRV8tPxcgLL7g8VEt_-57" value="&amp;lt;&amp;lt;enum&amp;gt;&amp;gt;&lt;div&gt;StatusCompeticao&lt;/div&gt;" style="swimlane;fontStyle=1;align=center;verticalAlign=top;childLayout=stackLayout;horizontal=1;startSize=40;horizontalStack=0;resizeParent=1;resizeParentMax=0;resizeLast=0;collapsible=1;marginBottom=0;whiteSpace=wrap;html=1;" vertex="1" parent="1">
          <mxGeometry x="400" y="10" width="160" height="98" as="geometry" />
        </mxCell>
        <mxCell id="D_SRV8tPxcgLL7g8VEt_-58" value="AGENDADA&lt;div&gt;EM_ANDAMENTO&lt;/div&gt;&lt;div&gt;FINALIZADA&lt;/div&gt;" style="text;strokeColor=none;fillColor=none;align=left;verticalAlign=top;spacingLeft=4;spacingRight=4;overflow=hidden;rotatable=0;points=[[0,0.5],[1,0.5]];portConstraint=eastwest;whiteSpace=wrap;html=1;" vertex="1" parent="D_SRV8tPxcgLL7g8VEt_-57">
          <mxGeometry y="40" width="160" height="50" as="geometry" />
        </mxCell>
        <mxCell id="D_SRV8tPxcgLL7g8VEt_-59" value="" style="line;strokeWidth=1;fillColor=none;align=left;verticalAlign=middle;spacingTop=-1;spacingLeft=3;spacingRight=3;rotatable=0;labelPosition=right;points=[];portConstraint=eastwest;strokeColor=inherit;" vertex="1" parent="D_SRV8tPxcgLL7g8VEt_-57">
          <mxGeometry y="90" width="160" height="8" as="geometry" />
        </mxCell>
        <mxCell id="D_SRV8tPxcgLL7g8VEt_-61" value="ContagemMedalhas" style="swimlane;fontStyle=1;align=center;verticalAlign=top;childLayout=stackLayout;horizontal=1;startSize=26;horizontalStack=0;resizeParent=1;resizeParentMax=0;resizeLast=0;collapsible=1;marginBottom=0;whiteSpace=wrap;html=1;" vertex="1" parent="1">
          <mxGeometry x="620" y="10" width="160" height="114" as="geometry" />
        </mxCell>
        <mxCell id="D_SRV8tPxcgLL7g8VEt_-62" value="+ouro:int&lt;div&gt;+prata: int&lt;/div&gt;&lt;div&gt;+bronze: int&lt;/div&gt;" style="text;strokeColor=none;fillColor=none;align=left;verticalAlign=top;spacingLeft=4;spacingRight=4;overflow=hidden;rotatable=0;points=[[0,0.5],[1,0.5]];portConstraint=eastwest;whiteSpace=wrap;html=1;" vertex="1" parent="D_SRV8tPxcgLL7g8VEt_-61">
          <mxGeometry y="26" width="160" height="54" as="geometry" />
        </mxCell>
        <mxCell id="D_SRV8tPxcgLL7g8VEt_-63" value="" style="line;strokeWidth=1;fillColor=none;align=left;verticalAlign=middle;spacingTop=-1;spacingLeft=3;spacingRight=3;rotatable=0;labelPosition=right;points=[];portConstraint=eastwest;strokeColor=inherit;" vertex="1" parent="D_SRV8tPxcgLL7g8VEt_-61">
          <mxGeometry y="80" width="160" height="8" as="geometry" />
        </mxCell>
        <mxCell id="D_SRV8tPxcgLL7g8VEt_-64" value="+total(): int" style="text;strokeColor=none;fillColor=none;align=left;verticalAlign=top;spacingLeft=4;spacingRight=4;overflow=hidden;rotatable=0;points=[[0,0.5],[1,0.5]];portConstraint=eastwest;whiteSpace=wrap;html=1;" vertex="1" parent="D_SRV8tPxcgLL7g8VEt_-61">
          <mxGeometry y="88" width="160" height="26" as="geometry" />
        </mxCell>
      </root>
    </mxGraphModel>
  </diagram>
</mxfile>
